<?xml version="1.0" standalone="no"?><!DOCTYPE svg PUBLIC "-//W3C//DTD SVG 1.1//EN" "http://www.w3.org/Graphics/SVG/1.1/DTD/svg11.dtd"><svg t="1761705509396" class="icon" viewBox="0 0 1024 1024" version="1.1" xmlns="http://www.w3.org/2000/svg" p-id="14570" xmlns:xlink="http://www.w3.org/1999/xlink" width="200" height="200"><path d="M919.313151 0H104.686849C46.922746 0 0 46.866281 0 104.743314v814.569837c0 57.820568 46.922746 104.686849 104.686849 104.686849h814.626302a104.630383 104.630383 0 0 0 104.686849-104.686849V104.743314A104.630383 104.630383 0 0 0 919.313151 0z m-293.39421 756.692804H264.822719v-35.403805l111.010973-15.302123v-37.718886L174.082823 313.27003l-103.839867-11.801268-15.302123-40.146898 376.285415 5.872401v34.161566l-112.140282 14.285746L474.874001 520.8933l162.789743-145.116074-114.342432-2.371546v-32.975793h303.106259l-14.172815 31.733554h-78.882162L510.447202 565.613896v146.358312h115.58467l-0.112931 44.720596z m150.988476 6.041798l-66.064517-16.544362 15.302123-56.634795 68.379598 21.23099-17.617204 51.948167z m36.533112-99.15324l-57.820568-16.487896 70.80761-268.944693 142.688062 48.277916-155.675104 237.154673z" fill="#6001d2" p-id="14571" data-spm-anchor-id="a313x.search_index.0.i3.589a3a81ebbwwG" class=""></path></svg>